<?xml version="1.0" encoding="UTF-8"?>
<svg width="68px" height="75px" viewBox="0 0 68 75" version="1.1" xmlns="http://www.w3.org/2000/svg" xmlns:xlink="http://www.w3.org/1999/xlink">
    <!-- Generator: Sketch 60 (88103) - https://sketch.com -->
    <title>Asset 5</title>
    <desc>Created with Sketch.</desc>
    <defs>
        <linearGradient x1="31.4096614%" y1="0%" x2="72.5532123%" y2="100%" id="linearGradient-1">
            <stop stop-color="#00BDE9" offset="0%"></stop>
            <stop stop-color="#0088CE" offset="100%"></stop>
        </linearGradient>
    </defs>
    <g id="Login-Screen" stroke="none" stroke-width="1" fill="none" fill-rule="evenodd">
        <g id="01-Login---Practice-ID" transform="translate(-649.000000, -75.000000)" fill="url(#linearGradient-1)" fill-rule="nonzero">
            <g id="Asset-5" transform="translate(649.000000, 75.000000)">
                <path d="M67.3026316,38.3618421 C59.9769737,38.2467105 53.2467105,40.1644737 47.2730263,44.7006579 C47.0065789,44.9013158 46.7467105,45.1151316 46.4309211,45.3585526 C47.2072368,45.6578947 47.9013158,45.9309211 48.6019737,46.1940789 C51.0197368,47.1052632 52.1151316,50.0657895 51.9342105,51.7598684 C51.6282895,54.6348684 49.9605263,56.5789474 47.4440789,57.1052632 C45.1776316,57.5789474 43.3980263,56.8388158 42.1052632,54.8684211 C41.5427632,54.0065789 41.0789474,53.0756579 40.5460526,52.1447368 C38.3765736,55.4372235 36.9199311,59.1471798 36.2697368,63.0361842 C35.6118421,66.9605263 35.7401316,70.8947368 36.3322368,74.9901316 C34.5625,73.1085526 34.5,70.6315789 33.4506579,68.5460526 C33.2864879,69.3483716 33.0789465,70.1412014 32.8289474,70.9210526 C32.4985362,71.7336942 32.1173,72.524732 31.6875,73.2894737 C31.5888158,73.4802632 31.3585526,73.5953947 31.1118421,73.8256579 C31.9934211,65.9868421 31.1118421,58.6940789 26.6447368,52.1151316 C26.3157895,52.8717105 25.9868421,53.5526316 25.7006579,54.2434211 C24.8684211,56.2171053 22.2105263,57.5328947 20.3223684,57.2203947 C17.7631579,56.7927632 15.9638158,55.0921053 15.5427632,52.6315789 C15.0822368,49.9440789 15.7894737,48.1940789 18.0065789,46.7105263 C18.8322368,46.1644737 19.7236842,45.7236842 20.6381579,45.2105263 C14.6875,40.1907895 7.69407895,38.5230263 0.240131579,38.1578947 L1.84868421,37.6677632 L3.72039474,37.0986842 L0,35.9605263 L0,35.8552632 C1.04605263,35.7730263 2.09539474,35.7072368 3.13815789,35.6085526 C8.07236842,35.1480263 12.8486842,34.0592105 17.1743421,31.3947368 C18.3914474,30.6447368 19.5328947,29.75 20.8092105,28.8651316 C19.9769737,28.4736842 19.2828947,28.1875 18.6217105,27.8355263 C15.6611842,26.2565789 14.6743421,23.5592105 15.8947368,20.3256579 C16.6513158,18.3059211 18.1973684,17.3190789 20.1414474,17 C22.7730263,16.5723684 24.6217105,17.7631579 25.9440789,20.6184211 C26.1677632,21.0986842 26.3651316,21.6052632 26.6019737,22.1217105 C29.8355263,17.2434211 32.2368421,10.7138158 31.3157895,1.61513158 C32.0953947,1.48684211 32.6315789,1.92105263 32.8453947,2.83223684 C32.9473684,3.29934211 32.9802632,3.78618421 33.1184211,4.24013158 C33.2497632,4.56003223 33.4140242,4.86540343 33.6085526,5.15131579 L33.8059211,5.10526316 L35.4013158,0 C35.1480263,7.86513158 36.1907895,15.3815789 40.5625,22.0394737 C41.0493421,21.1611842 41.4802632,20.2598684 42.0230263,19.4440789 C43.5065789,17.2105263 45.3486842,16.4835526 47.7138158,17.1217105 C50.0789474,17.7598684 51.5460526,19.5065789 51.8618421,22.1019737 C52.1447368,24.4276316 51.25,26.1480263 49.4078947,27.3651316 C48.5855263,27.9013158 47.6677632,28.2796053 46.6940789,28.7828947 C47.4769737,29.4407895 48.2269737,30.0986842 49.0296053,30.7203947 C51.5592105,32.6217105 54.4473684,33.6414474 57.4802632,34.1677632 C60.5131579,34.6940789 63.6447368,35.0559211 66.7302632,35.4835526 L67.0921053,35.5328947 C66.2828947,36.7236842 64.9144737,36.4144737 63.7532895,37.1184211 L67.3026316,38.2401316 L67.3026316,38.3618421 Z M33.5197368,58.9638158 C33.6743421,58.6019737 33.7697368,58.3651316 33.8717105,58.1348684 C34.8881579,55.8322368 35.8453947,53.5296053 36.9342105,51.2598684 C38.5164474,47.9967105 40.5197368,45.0493421 43.3157895,42.7730263 C45.8717105,40.6907895 48.7960526,39.3618421 51.8190789,38.2368421 C52.9671053,37.8125 54.1217105,37.4243421 55.3717105,36.9835526 C55.2006579,36.9342105 55.1414474,36.9144737 55.0822368,36.9013158 C51.9109603,36.2267554 48.8753792,35.0247543 46.1019737,33.3453947 C40.875,30.0986842 37.4144737,25.3190789 35.1447368,19.5296053 C34.5592105,18.0328947 34.0789474,16.4868421 33.5,14.8519737 C30.5197368,26.8388158 23.4769737,34.4276316 11.7730263,37.0723684 C23.3552632,39.7072368 30.4638158,47.0756579 33.5197368,58.9638158 Z" id="Shape"></path>
            </g>
        </g>
    </g>
</svg>