<?xml version="1.0" encoding="UTF-8"?>
<svg width="59px" height="75px" viewBox="0 0 59 75" version="1.1" xmlns="http://www.w3.org/2000/svg" xmlns:xlink="http://www.w3.org/1999/xlink">
    <!-- Generator: Sketch 60 (88103) - https://sketch.com -->
    <title>Asset 1</title>
    <desc>Created with Sketch.</desc>
    <defs>
        <linearGradient x1="27.1844317%" y1="10.4895833%" x2="72.6005462%" y2="91.2395833%" id="linearGradient-1">
            <stop stop-color="#9ACDA6" offset="0%"></stop>
            <stop stop-color="#2BB3AF" offset="100%"></stop>
        </linearGradient>
        <linearGradient x1="23%" y1="50%" x2="77%" y2="50%" id="linearGradient-2">
            <stop stop-color="#ED1E79" offset="0%"></stop>
            <stop stop-color="#662D91" offset="100%"></stop>
        </linearGradient>
    </defs>
    <g id="Login-Screen" stroke="none" stroke-width="1" fill="none" fill-rule="evenodd">
        <g id="01-Login---Practice-ID" transform="translate(-654.000000, -55.000000)" fill-rule="nonzero">
            <g id="Asset-1" transform="translate(654.000000, 55.000000)">
                <path d="M58.3377017,32.6674705 C58.0260519,35.4438061 57.3580742,38.1686012 56.3502042,40.7748119 C54.888809,44.5293816 52.9938665,48.0699602 49.9736497,50.7594382 C48.8142762,51.7904858 48.0884499,52.2184678 47.5672189,52.3108731 C47.5672189,52.3400537 47.5672189,52.3740977 47.5672189,52.4130051 C44.8003107,52.3740977 42.4864349,51.8002127 40.5768785,50.4335882 C39.6259545,49.7302572 38.8022419,48.8700484 38.1412198,47.8900132 C36.8562309,46.0070467 36.1874015,43.7727289 36.226792,41.4945999 C36.226792,39.5200464 36.2755052,37.5503564 36.226792,35.575803 C36.2024788,33.9478143 35.5161537,32.399679 34.3255012,31.2870836 C33.1348487,30.1744882 31.5422346,29.5930876 29.9135647,29.6764597 C26.5815836,29.802909 24.1118257,32.594519 24.2628365,36.0281021 C24.3992334,39.1163816 26.9761603,41.4800096 30.3860825,41.6015954 C31.5698126,41.6453663 32.7584141,41.6015954 34.0444419,41.6015954 L34.0444419,52.8263969 C28.4424269,53.3808281 23.3275436,52.3935514 18.8410603,48.7070698 C11.2564191,42.530511 11.1200222,30.6783268 17.3114666,24.0348784 C22.0850624,18.7336812 29.6227648,16.8908982 36.3096044,19.3903007 C43.256103,21.8706511 47.5136344,28.0861174 47.5867042,35.3423582 C47.5867042,36.9521543 47.5867042,38.5570869 47.6159321,40.1668829 L47.352881,40.9255783 C47.4503073,40.7018605 47.537991,40.4781426 47.6159321,40.2544247 C47.8838546,39.5443636 48.1030638,38.7953951 48.3320158,38.0707437 C50.0174916,32.0449512 49.4621614,26.0240222 47.2018701,21.1897706 C47.1141864,20.9903699 47.0265027,20.7861057 46.9339477,20.586705 C44.6785277,15.6843654 40.8935141,12.4355927 35.841958,10.6361228 C33.1297734,9.67667594 30.2386305,9.32790883 27.3756084,9.61480202 C25.0993652,9.79948801 22.8766753,10.4012477 20.8188151,11.3899548 C16.0449241,13.7292656 12.9175383,17.5178793 11.1492501,22.4639898 C9.72422769,26.5923203 9.44149447,31.0280789 10.3308688,35.3034508 C10.7729655,37.612244 11.4705947,39.8648588 12.4109213,42.0198506 C12.9996404,43.3785212 13.6698499,44.7005295 14.4179041,45.9786844 C15.2982656,47.4860108 16.2559406,48.9469826 17.28711,50.3557733 C20.6308325,54.8792939 24.6092679,58.8987895 29.1000547,62.2906359 C29.2179841,62.4005919 29.4010586,62.4005919 29.518988,62.2906359 C30.5551287,61.5749 31.5192923,60.7605151 32.3979366,59.8589198 C32.5208844,59.7238311 32.7057357,59.6629289 32.8850683,59.6984265 C35.027002,60.0588916 37.2076895,60.1308638 39.3687918,59.9124175 C41.5739957,59.693442 43.7264357,59.1048221 45.7356036,58.1713088 C46.7577752,57.6901898 47.7357756,57.120613 48.658394,56.4691076 L48.4050855,56.8290015 C45.9870446,60.1761617 43.2690142,63.2967556 40.2845994,66.152201 C37.0102692,69.3124209 33.4740793,72.1904827 29.7138407,74.7556125 C29.226709,75.0814625 29.3923338,75.0814625 28.9295586,74.7556125 C22.4497428,70.101044 16.618087,64.6075542 11.5876687,58.4193439 C8.11746746,54.2117457 5.25756974,49.5375535 3.09209117,44.534245 C1.40059184,40.6328195 0.379562907,36.4747512 0.0718743845,32.2346251 C-0.083340094,29.8788264 0.0130050183,27.5132252 0.35928211,25.177785 C0.900526933,21.3501603 2.16865654,17.660875 4.09558255,14.3080141 C6.94433631,9.26963822 11.3041962,5.25022737 16.5612837,2.81572385 C21.814094,0.361437997 27.6682154,-0.515512246 33.4111706,0.29160255 C36.4245252,0.685353096 39.3514322,1.57613807 42.0723729,2.92758279 C47.498432,5.55998847 51.9729562,9.80806881 54.8790663,15.0861632 C57.8765112,20.4298266 59.0881384,26.5889002 58.3377017,32.6674705 Z" id="Path" fill="url(#linearGradient-1)"></path>
                <path d="M47.5861446,40.1204819 L47.5861446,40.2038925 C47.4993976,40.4170528 47.4018072,40.6302132 47.2933735,40.8433735 L47.5861446,40.1204819 Z" id="Path" fill="url(#linearGradient-2)"></path>
            </g>
        </g>
    </g>
</svg>